<?xml version="1.0" encoding="UTF-8"?>
<svg width="200" height="60" viewBox="0 0 200 60" xmlns="http://www.w3.org/2000/svg">
  <!-- Bug in compass logo -->
  <g fill="#FFFFFF">
    <!-- Compass circle -->
    <circle cx="30" cy="30" r="25" fill="none" stroke="#FFFFFF" stroke-width="2.5"/>
    
    <!-- Compass points -->
    <polygon points="30,0 33,10 27,10" />
    <polygon points="60,30 50,33 50,27" />
    <polygon points="30,60 27,50 33,50" />
    <polygon points="0,30 10,27 10,33" />
    
    <!-- Bug silhouette -->
    <path d="M30,17 C28,17 26,18 25,19 C24,18 22,17 20,17 C17,17 15,19 15,22 C15,25 17,27 20,27 C22,27 24,26 25,25 C26,26 28,27 30,27 C32,27 34,26 35,25 C36,26 38,27 40,27 C43,27 45,25 45,22 C45,19 43,17 40,17 C38,17 36,18 35,19 C34,18 32,17 30,17 Z" fill="#FFFFFF" />
    <ellipse cx="30" cy="35" rx="12" ry="15" fill="#FFFFFF" />
    
    <!-- Bug legs -->
    <path d="M18,25 C16,25 14,27 12,30" fill="none" stroke="#FFFFFF" stroke-width="1.5" />
    <path d="M18,30 C16,30 14,33 12,37" fill="none" stroke="#FFFFFF" stroke-width="1.5" />
    <path d="M18,35 C16,35 14,38 13,42" fill="none" stroke="#FFFFFF" stroke-width="1.5" />
    
    <path d="M42,25 C44,25 46,27 48,30" fill="none" stroke="#FFFFFF" stroke-width="1.5" />
    <path d="M42,30 C44,30 46,33 48,37" fill="none" stroke="#FFFFFF" stroke-width="1.5" />
    <path d="M42,35 C44,35 46,38 47,42" fill="none" stroke="#FFFFFF" stroke-width="1.5" />
    
    <!-- Antennas -->
    <path d="M25,19 C23,17 21,14 20,10" fill="none" stroke="#FFFFFF" stroke-width="1.5" />
    <path d="M35,19 C37,17 39,14 40,10" fill="none" stroke="#FFFFFF" stroke-width="1.5" />
  </g>
  
  <!-- Text "NORTHERN" -->
  <text x="70" y="30" font-family="Arial, sans-serif" font-weight="bold" font-size="15" fill="#FFFFFF">NORTHERN</text>
  
  <!-- Text "PEST SOLUTIONS" -->
  <text x="70" y="45" font-family="Arial, sans-serif" font-size="12" fill="#FFFFFF">PEST SOLUTIONS</text>
  
  <!-- Amber accent highlight -->
  <circle cx="30" cy="30" r="28" fill="none" stroke="#F6B04D" stroke-width="1.5" opacity="0.7" />
</svg>