<?xml version="1.0" encoding="UTF-8"?>
<svg xmlns="http://www.w3.org/2000/svg" viewBox="0 0 250 100">
  <!-- Compass circle with bug -->
  <g>
    <!-- White outer circle for contrast -->
    <circle cx="50" cy="50" r="40" fill="none" stroke="#FFFFFF" stroke-width="5"/>
    
    <!-- Amber accent circle -->
    <circle cx="50" cy="50" r="35" fill="none" stroke="#F6B04D" stroke-width="3"/>
    
    <!-- Bug silhouette in white -->
    <path d="M50,30 C47,30 44,31 42,33 C40,31 37,30 34,30 C30,30 27,33 27,37 C27,41 30,44 34,44 C37,44 40,43 42,41 C44,43 47,44 50,44 C53,44 56,43 58,41 C60,43 63,44 66,44 C70,44 73,41 73,37 C73,33 70,30 66,30 C63,30 60,31 58,33 C56,31 53,30 50,30 Z" fill="#FFFFFF" />
    <ellipse cx="50" cy="60" rx="15" ry="20" fill="#FFFFFF" />
    
    <!-- Bug legs and antenna in white -->
    <path d="M35,40 C32,40 30,42 28,45" fill="none" stroke="#FFFFFF" stroke-width="2" />
    <path d="M35,50 C32,50 30,53 28,57" fill="none" stroke="#FFFFFF" stroke-width="2" />
    <path d="M35,60 C32,60 30,63 29,67" fill="none" stroke="#FFFFFF" stroke-width="2" />
    
    <path d="M65,40 C68,40 70,42 72,45" fill="none" stroke="#FFFFFF" stroke-width="2" />
    <path d="M65,50 C68,50 70,53 72,57" fill="none" stroke="#FFFFFF" stroke-width="2" />
    <path d="M65,60 C68,60 70,63 71,67" fill="none" stroke="#FFFFFF" stroke-width="2" />
    
    <path d="M42,33 C40,31 38,28 37,24" fill="none" stroke="#FFFFFF" stroke-width="2" />
    <path d="M58,33 C60,31 62,28 63,24" fill="none" stroke="#FFFFFF" stroke-width="2" />
  </g>
  
  <!-- Text "NORTHERN PEST SOLUTIONS" in white -->
  <text x="110" y="45" font-family="Arial, sans-serif" font-weight="bold" font-size="18" fill="#FFFFFF" text-anchor="middle">NORTHERN</text>
  <text x="110" y="70" font-family="Arial, sans-serif" font-weight="bold" font-size="18" fill="#FFFFFF" text-anchor="middle">PEST SOLUTIONS</text>
</svg>