<?xml version="1.0" encoding="UTF-8"?>
<svg xmlns="http://www.w3.org/2000/svg" viewBox="0 0 500 500">
  <!-- Bug in compass watermark -->
  <g fill="#FFFFFF" opacity="0.07">
    <!-- Compass circle -->
    <circle cx="250" cy="250" r="220" fill="none" stroke="#FFFFFF" stroke-width="20"/>
    
    <!-- Compass points -->
    <polygon points="250,0 280,80 220,80" />
    <polygon points="500,250 420,280 420,220" />
    <polygon points="250,500 220,420 280,420" />
    <polygon points="0,250 80,220 80,280" />
    
    <!-- Bug silhouette -->
    <path d="M250,150 C230,150 210,160 200,170 C190,160 170,150 150,150 C120,150 100,170 100,200 C100,230 120,250 150,250 C170,250 190,240 200,230 C210,240 230,250 250,250 C270,250 290,240 300,230 C310,240 330,250 350,250 C380,250 400,230 400,200 C400,170 380,150 350,150 C330,150 310,160 300,170 C290,160 270,150 250,150 Z" fill="#FFFFFF" />
    <ellipse cx="250" cy="300" rx="100" ry="130" fill="#FFFFFF" />
    
    <!-- Bug legs -->
    <path d="M150,230 C120,230 100,250 80,280" fill="none" stroke="#FFFFFF" stroke-width="15" />
    <path d="M150,280 C120,280 100,300 80,330" fill="none" stroke="#FFFFFF" stroke-width="15" />
    <path d="M150,330 C120,330 100,350 80,380" fill="none" stroke="#FFFFFF" stroke-width="15" />
    
    <path d="M350,230 C380,230 400,250 420,280" fill="none" stroke="#FFFFFF" stroke-width="15" />
    <path d="M350,280 C380,280 400,300 420,330" fill="none" stroke="#FFFFFF" stroke-width="15" />
    <path d="M350,330 C380,330 400,350 420,380" fill="none" stroke="#FFFFFF" stroke-width="15" />
    
    <!-- Antennas -->
    <path d="M200,170 C180,150 160,130 150,90" fill="none" stroke="#FFFFFF" stroke-width="15" />
    <path d="M300,170 C320,150 340,130 350,90" fill="none" stroke="#FFFFFF" stroke-width="15" />
  </g>
</svg>